# xmcd
#
# Track frame offsets: 
#        150
#        16698
#        38580
#        51456
#        66863
#        79069
#        91420
#        105265
#        119195
#        127458
#        142118
#        152235
#        166732
#        182405
#        195369
#        207141
#        223974
#        245276
#        276819
#        289353
#        308842
#        330230
#        341689
#
# Disc length: 4739 seconds
#
# Revision: 0
# Processed by: cddbd v1.5.2PL0 Copyright (c) Steve Scherf et al.
# Submitted via: ExactAudioCopy v0.99pb4
#
DISCID=54128117
DTITLE=Various Artist -  RARE SOUL FROM THE SOUTH SIDE VOL 3
DYEAR=1975
DGENRE=Soul
TTITLE0=Jonah's Whale - Why
TTITLE1=Brothers By Choice - Got To Get You Back Home
TTITLE2=Carroll Jones and The Soul Reflections - I Need You So Bad
TTITLE3=Billy Jones and The Stars - My Baby's Gone
TTITLE4=Timmy Norman - I'm Coming Home
TTITLE5=Chino Feaster - You're So Much Woman
TTITLE6=The Castaways - If Our Love Is Strong
TTITLE7=Gloria Fowler and The Entros - Train Of Love
TTITLE8=The Ultimates Combo - Why Did You Leave Me
TTITLE9=The Otisettes - In Your Arms I'm Gonna Stay
TTITLE10=Elvin Spencer - Don't Make This Dream Come True
TTITLE11=Planets - Everybody's Getting High
TTITLE12=Hott Butter Soul - Come Walk With Me
TTITLE13=Van Jones and The Jays - I Want To Groove You
TTITLE14=The Sophisticates - I Need You
TTITLE15=Deviations and Deviation Band - Loving You
TTITLE16=Centaura - Why Can't We Love
TTITLE17=Coast To Coast - I Want You Dear
TTITLE18=The Intensions - Baby, Baby, Release Me
TTITLE19=City Magic - Do You Believe In Magic
TTITLE20=Planets - Time
TTITLE21=The Debonaires - Woman Why
TTITLE22=TMG's - Takes A Little Time 
EXTD=
EXTT0=
EXTT1=
EXTT2=
EXTT3=
EXTT4=
EXTT5=
EXTT6=
EXTT7=
EXTT8=
EXTT9=
EXTT10=
EXTT11=
EXTT12=
EXTT13=
EXTT14=
EXTT15=
EXTT16=
EXTT17=
EXTT18=
EXTT19=
EXTT20=
EXTT21=
EXTT22=
PLAYORDER=
